HIERARCHY
ROOT reference
{
  OFFSET 0 0 0
  CHANNELS 6 Xposition Yposition Zposition Zrotation Xrotation Yrotation
  JOINT Hips
  {
    OFFSET 63.1231 90.7754 126.625
    CHANNELS 6 Xposition Yposition Zposition Zrotation Xrotation Yrotation
    JOINT Spine
    {
      OFFSET 0 7.81434 0
      CHANNELS 6 Xposition Yposition Zposition Zrotation Xrotation Yrotation
      JOINT Spine1
      {
        OFFSET 0 23.3781 0
        CHANNELS 6 Xposition Yposition Zposition Zrotation Xrotation Yrotation
        JOINT Neck
        {
          OFFSET 0 23.2821 2.11656
          CHANNELS 6 Xposition Yposition Zposition Zrotation Xrotation Yrotation
          JOINT Head
          {
            OFFSET 0 13.3416 -1.90594
            CHANNELS 6 Xposition Yposition Zposition Zrotation Xrotation Yrotation
            End Site
            {
              OFFSET 0 23.8242 0
            }
          }
        }
        JOINT LeftShoulder
        {
          OFFSET 3.82472 21.4916 -0.175476
          CHANNELS 6 Xposition Yposition Zposition Zrotation Xrotation Yrotation
          JOINT LeftArm
          {
            OFFSET 10.8239 0 0
            CHANNELS 6 Xposition Yposition Zposition Zrotation Xrotation Yrotation
            JOINT LeftForeArm
            {
              OFFSET 28.5356 0 0
              CHANNELS 6 Xposition Yposition Zposition Zrotation Xrotation Yrotation
              JOINT LeftHand
              {
                OFFSET 24.5315 0 0
                CHANNELS 6 Xposition Yposition Zposition Zrotation Xrotation Yrotation
                End Site
                {
                  OFFSET 14.2945 0 0
                }
              }
            }
          }
        }
        JOINT RightShoulder
        {
          OFFSET -3.77033 21.4916 -0.175476
          CHANNELS 6 Xposition Yposition Zposition Zrotation Xrotation Yrotation
          JOINT RightArm
          {
            OFFSET -10.8239 0 0
            CHANNELS 6 Xposition Yposition Zposition Zrotation Xrotation Yrotation
            JOINT RightForeArm
            {
              OFFSET -28.5356 0 0
              CHANNELS 6 Xposition Yposition Zposition Zrotation Xrotation Yrotation
              JOINT RightHand
              {
                OFFSET -24.5315 0 0
                CHANNELS 6 Xposition Yposition Zposition Zrotation Xrotation Yrotation
                End Site
                {
                  OFFSET -14.2945 0 0
                }
              }
            }
          }
        }
      }
    }
    JOINT LeftUpLeg
    {
      OFFSET 9.52968 0 0
      CHANNELS 6 Xposition Yposition Zposition Zrotation Xrotation Yrotation
      JOINT LeftLeg
      {
        OFFSET 0 -40.1884 0
        CHANNELS 6 Xposition Yposition Zposition Zrotation Xrotation Yrotation
        JOINT LeftFoot
        {
          OFFSET 0 -39.9954 0
          CHANNELS 6 Xposition Yposition Zposition Zrotation Xrotation Yrotation
          JOINT LeftToeBase
          {
            OFFSET 0 -6.19429 14.2945
            CHANNELS 6 Xposition Yposition Zposition Zrotation Xrotation Yrotation
            End Site
            {
              OFFSET 0 0 3.81187
            }
          }
        }
      }
    }
    JOINT RightUpLeg
    {
      OFFSET -9.52968 0 0
      CHANNELS 6 Xposition Yposition Zposition Zrotation Xrotation Yrotation
      JOINT RightLeg
      {
        OFFSET 0 -40.1884 0
        CHANNELS 6 Xposition Yposition Zposition Zrotation Xrotation Yrotation
        JOINT RightFoot
        {
          OFFSET 0 -39.9954 0
          CHANNELS 6 Xposition Yposition Zposition Zrotation Xrotation Yrotation
          JOINT RightToeBase
          {
            OFFSET 0 -6.19429 14.2945
            CHANNELS 6 Xposition Yposition Zposition Zrotation Xrotation Yrotation
            End Site
            {
              OFFSET 0 0 3.81187
            }
          }
        }
      }
    }
  }
}
MOTION
Frames:	4
Frame Time:	0.004
0 0 0 0 0 -0 0.372322 81.4701 -198.441 -0.190776 1.10279 4.41801 0 7.81434 0 -0.876352 -4.75355 -0.717289 1.77636e-015 23.3781 0 -0.813025 -1.46562 -0.690808 0 23.2821 2.11656 3.799 21.7704 1.22885 3.55271e-015 13.3416 -1.90594 -4.25419 -3.72697 0.736707 3.82472 21.4916 -0.175476 13.9498 2.44735 9.22294 10.8239 2.84217e-014 -2.84217e-014 -21.9503 0.310162 2.83005 28.5356 -2.84217e-014 2.84217e-014 1.88344 -2.53325 0.324945 24.5315 0 0 10.9468 -2.58617 -0.495685 -3.77033 21.4916 -0.175476 -11.6807 -0.635261 5.64639 -10.8239 0 -2.84217e-014 15.0604 -1.01998 -2.78235 -28.5356 -2.84217e-014 0 -2.8412 6.56292 -0.396488 -24.5315 0 2.84217e-014 -6.51909 6.55631 -0.0522571 9.52968 0 0 3.70293 5.42298 -1.28044 3.55271e-015 -40.1884 -2.84217e-014 -5.06507 -4.03335 -1.85823 0 -39.9954 2.84217e-014 5.54993 -8.55827 5.21298 0 -6.19429 14.2945 -9.93923e-017 0 -0 -9.52968 0 2.84217e-014 -3.47545 0.594531 3.64328 0 -40.1884 -2.84217e-014 2.31512 1.77923 -0.756085 1.77636e-015 -39.9954 0 -5.57484 -10.0511 -1.19361 0 -6.19429 14.2945 -5.96354e-016 -7.95139e-016 -0 
0 0 0 0 0 -0 0.372322 81.4701 -198.441 -0.190776 1.10279 4.41801 0 7.81434 0 -0.876352 -4.75355 -0.717289 1.77636e-015 23.3781 0 -0.798246 -1.45585 -0.690805 0 23.2821 2.11656 3.80001 21.7517 1.22869 3.55271e-015 13.3416 -1.90594 -4.2541 -3.73424 0.736713 3.82472 21.4916 -0.175476 13.9516 2.43606 9.22286 10.8239 0 -2.84217e-014 -21.9212 0.310165 2.81854 28.5356 0 2.84217e-014 1.95948 -2.61544 0.324966 24.5315 0 0 9.9918 -2.68474 -0.728823 -3.77033 21.4916 -0.175476 -11.6914 -0.635265 5.64247 -10.8239 2.84217e-014 0 15.0593 -1.04274 -2.78237 -28.5356 0 0 -2.82222 6.59109 -0.39651 -24.5315 2.84217e-014 0 -6.51674 6.58434 -0.05226 9.52968 0 0 3.69365 5.42298 -1.28044 0 -40.1884 2.84217e-014 -5.06507 -4.03335 -1.85823 3.55271e-015 -39.9954 0 5.53776 -8.54087 5.21962 -7.10543e-015 -6.19429 14.2945 0 0 -7.95139e-016 -9.52968 0 2.84217e-014 -3.48437 0.594544 3.62357 -1.77636e-015 -40.1884 0 2.31463 1.77923 -0.740135 -1.77636e-015 -39.9954 0 -5.60273 -10.065 -1.19646 5.32907e-015 -6.19429 14.2945 -1.98785e-016 7.95139e-016 7.95139e-016 
0 0 0 0 0 -0 0.373967 81.4701 -198.441 -0.190776 1.10279 4.41801 0 7.81434 0 -0.876352 -4.75355 -0.717289 1.77636e-015 23.3781 0 -0.785805 -1.4495 -0.690803 0 23.2821 2.11656 3.7795 21.7413 1.2286 0 13.3416 -1.90594 -4.24541 -3.73708 0.735813 3.82472 21.4916 -0.175476 13.9522 2.43538 9.21291 10.8239 0 0 -21.8983 0.310811 2.82367 28.5356 0 0 1.93921 -2.56441 0.324953 24.5315 0 0 9.99762 -2.63433 -0.737127 -3.77033 21.4916 -0.175476 -11.7129 -0.635276 5.63243 -10.8239 -5.68434e-014 0 15.0584 -1.06102 -2.78239 -28.5356 2.84217e-014 -2.84217e-014 -2.80969 6.59444 -0.393708 -24.5315 0 0 -6.53868 6.58834 -0.061377 9.52968 0 0 3.69189 5.42298 -1.28044 3.55271e-015 -40.1884 0 -5.0647 -4.02418 -1.85725 0 -39.9954 0 5.54657 -8.54696 5.22227 0 -6.19429 14.2945 4.96962e-016 7.95139e-016 -3.18055e-015 -9.52968 0 2.84217e-014 -3.48741 0.594537 3.6345 -1.77636e-015 -40.1884 2.84217e-014 2.31537 1.77922 -0.764166 0 -39.9954 0 -5.56287 -10.0528 -1.17927 -1.77636e-015 -6.19429 14.2945 1.2921e-015 0 -1.59028e-015 
0 0 0 0 0 -0 0.375 81.4701 -198.441 -0.190776 1.10279 4.41801 0 7.81434 0 -0.876352 -4.75355 -0.717289 1.77636e-015 23.3781 0 -0.783894 -1.45194 -0.690803 1.77636e-015 23.2821 2.11656 3.77215 21.7378 1.23175 0 13.3416 -1.90594 -4.22748 -3.74846 0.73899 3.82472 21.4916 -0.175476 13.9509 2.44247 9.2163 10.8239 0 0 -21.8887 0.291752 2.81186 28.5356 -2.84217e-014 -2.84217e-014 1.92063 -2.51357 0.33049 24.5315 0 0 10.0712 -2.58608 -0.760853 -3.77033 21.4916 -0.175476 -11.7127 -0.635276 5.63277 -10.8239 0 0 15.0595 -1.03867 -2.78237 -28.5356 0 0 -2.80745 6.5996 -0.413549 -24.5315 0 0 -6.5127 6.59158 -0.013225 9.52968 0 0 3.69171 5.42144 -1.28044 3.55271e-015 -40.1884 0 -5.06593 -4.03359 -1.87046 0 -39.9954 0 5.55861 -8.54701 5.24768 0 -6.19429 14.2945 3.97569e-016 0 -0 -9.52968 0 2.84217e-014 -3.48627 0.581982 3.63754 -1.77636e-015 -40.1884 0 2.31574 1.77922 -0.776097 1.77636e-015 -39.9954 -2.84217e-014 -5.56577 -10.0508 -1.16615 1.77636e-015 -6.19429 14.2945 -1.09332e-015 1.59028e-015 -0 
